<?xml version="1.0" encoding="utf-8"?>
<!-- Generator: Adobe Illustrator 19.1.0, SVG Export Plug-In . SVG Version: 6.00 Build 0)  -->
<svg version="1.1" id="Layer_1" xmlns="http://www.w3.org/2000/svg" xmlns:xlink="http://www.w3.org/1999/xlink" x="0px" y="0px"
	 viewBox="0 0 200 200" style="enable-background:new 0 0 200 200;" xml:space="preserve">
<style type="text/css">
	.st0{fill:#434343;}
</style>
<g>
	<g>
		<g>
			<path class="st0" d="M147.9,162.8c-1.7,0-3.4-0.5-4.9-1.6c-3.7-2.7-4.6-7.9-1.8-11.7l36.6-50.2L141.1,49c-2.7-3.7-1.9-9,1.8-11.7
				c3.7-2.7,9-1.9,11.7,1.8l40.1,55.2c2.1,2.9,2.1,6.9,0,9.8l-40.1,55.2C153,161.6,150.5,162.8,147.9,162.8L147.9,162.8z"/>
		</g>
		<g>
			<path class="st0" d="M188,107.6H84.3c-4.6,0-8.4-3.7-8.4-8.4c0-4.6,3.7-8.4,8.4-8.4H188c4.6,0,8.4,3.7,8.4,8.4
				C196.4,103.9,192.7,107.6,188,107.6L188,107.6z"/>
		</g>
	</g>
	<g>
		<path class="st0" d="M14.3,196.7c-4.6,0-8.4-3.7-8.4-8.4V10.2c0-4.6,3.7-8.4,8.4-8.4s8.4,3.7,8.4,8.4v178.1
			C22.6,192.9,18.9,196.7,14.3,196.7L14.3,196.7z"/>
	</g>
	<g>
		<g>
			<path class="st0" d="M126.2,196.7H14.3c-4.6,0-8.4-3.7-8.4-8.4c0-4.6,3.7-8.4,8.4-8.4h111.9c4.6,0,8.4,3.7,8.4,8.4
				C134.6,192.9,130.8,196.7,126.2,196.7L126.2,196.7z"/>
		</g>
		<g>
			<path class="st0" d="M126.2,18.6H14.3c-4.6,0-8.4-3.7-8.4-8.4c0-4.6,3.7-8.4,8.4-8.4h111.9c4.6,0,8.4,3.7,8.4,8.4
				C134.6,14.9,130.8,18.6,126.2,18.6L126.2,18.6z"/>
		</g>
	</g>
</g>
</svg>
