<?xml version="1.0" encoding="utf-8"?>
<!-- Generator: Adobe Illustrator 19.1.0, SVG Export Plug-In . SVG Version: 6.00 Build 0)  -->
<svg version="1.1" id="Layer_1" xmlns="http://www.w3.org/2000/svg" xmlns:xlink="http://www.w3.org/1999/xlink" x="0px" y="0px"
	 viewBox="0 0 200 200" style="enable-background:new 0 0 200 200;" xml:space="preserve">
<style type="text/css">
	.st0{fill:#FFFFFF;}
</style>
<g>
	<g>
		<path class="st0" d="M148.2,197.7h-134c-4.5,0-8.1-3.6-8.1-8.1V17c0-4.5,3.6-8.1,8.1-8.1h134c4.5,0,8.1,3.6,8.1,8.1v51.8
			c0,4.5-3.6,8.1-8.1,8.1c-4.5,0-8.1-3.6-8.1-8.1V25.1H22.3v156.3h117.8v-65.7c0-4.5,3.6-8.1,8.1-8.1c4.5,0,8.1,3.6,8.1,8.1v73.8
			C156.3,194,152.7,197.7,148.2,197.7L148.2,197.7z"/>
	</g>
	<g>
		<path class="st0" d="M108.6,35.2H53.8c-9.5,0-17.3-7.7-17.3-17.3c0-9.5,7.7-17.3,17.3-17.3h54.8c9.5,0,17.3,7.7,17.3,17.3
			C125.8,27.5,118.1,35.2,108.6,35.2L108.6,35.2z M53.8,17c-0.6,0-1,0.5-1,1c0,0.6,0.5,1,1,1h54.8c0.6,0,1-0.5,1-1c0-0.6-0.4-1-1-1
			H53.8L53.8,17z"/>
	</g>
	<g>
		<g>
			<path class="st0" d="M94,157c-0.3,0-0.7,0-1-0.1l-26.3-3.4c-2.3-0.3-4.4-1.6-5.7-3.5c-1.3-1.9-1.7-4.3-1.2-6.6l6.4-25.7
				c0.5-1.9,1.6-3.6,3.3-4.7l92.1-62.8c1.8-1.2,4-1.7,6.1-1.3c2.1,0.4,4,1.6,5.2,3.4l19.8,29c1.2,1.8,1.7,4,1.3,6.1
				c-0.4,2.1-1.6,4-3.4,5.2l-92.1,62.8C97.2,156.5,95.7,157,94,157L94,157z M77.9,138.6l14.1,1.8l82.8-56.5l-10.7-15.6l-82.8,56.5
				L77.9,138.6L77.9,138.6z"/>
		</g>
		<g>
			<path class="st0" d="M170.2,98.8c-1.3,0-2.6-0.6-3.3-1.8L149,70.9c-1.3-1.9-0.8-4.4,1.1-5.6c1.9-1.3,4.4-0.8,5.6,1.1l17.8,26.1
				c1.3,1.9,0.8,4.4-1.1,5.6C171.8,98.6,171,98.8,170.2,98.8L170.2,98.8z"/>
		</g>
		<g>
			<path class="st0" d="M88.9,135.1c-1.3,0-2.6-0.6-3.3-1.8c-1.3-1.9-0.8-4.4,1.1-5.6l71.9-49c1.9-1.2,4.4-0.8,5.6,1.1
				c1.3,1.9,0.8,4.4-1.1,5.6l-71.9,49C90.5,134.9,89.7,135.1,88.9,135.1L88.9,135.1z"/>
		</g>
		<g>
			<path class="st0" d="M71.7,133.1c-0.2,0-0.4,0-0.7,0H71l-3.1,12.5l12.2,1.5c0.2-0.4,0.4-0.9,0.6-1.3c1.8-6.4-2.1-12-8.7-12.7
				C71.9,133.1,71.8,133.1,71.7,133.1L71.7,133.1z"/>
			<g>
				<path class="st0" d="M80.1,151.2c-0.2,0-0.3,0-0.5,0l-12.2-1.5c-1.2-0.1-2.2-0.8-2.9-1.7c-0.7-1-0.9-2.1-0.6-3.3l3.1-12.5
					c0.5-1.8,2.3-3.2,4-3.1c0,0,1.3,0,1.3,0c4.4,0.4,8.1,2.5,10.5,5.9c2.3,3.4,2.9,7.6,1.7,11.9c-0.3,0.8-0.5,1.4-0.8,1.9
					C83.1,150.3,81.7,151.2,80.1,151.2L80.1,151.2z M72.9,142.2l4.1,0.5c0-1.1-0.3-2.2-0.9-3.1c-0.5-0.8-1.2-1.4-2.1-1.8L72.9,142.2
					L72.9,142.2z"/>
			</g>
		</g>
	</g>
</g>
</svg>
