<?xml version="1.0" encoding="utf-8"?>
<!-- Generator: Adobe Illustrator 19.1.0, SVG Export Plug-In . SVG Version: 6.00 Build 0)  -->
<svg version="1.1" id="Layer_1" xmlns="http://www.w3.org/2000/svg" xmlns:xlink="http://www.w3.org/1999/xlink" x="0px" y="0px"
	 viewBox="0 0 200 200" style="enable-background:new 0 0 200 200;" xml:space="preserve">
<style type="text/css">
	.st0{fill:#FFFFFF;}
</style>
<g>
	<g>
		<g>
			<path class="st0" d="M129.3,193.1c-2.2,0-3.9-1.7-3.9-3.9v-40.7c0-2.2,1.7-3.9,3.9-3.9H170c2.2,0,3.9,1.7,3.9,3.9
				c0,2.2-1.7,3.9-3.9,3.9h-36.8v36.8C133.2,191.4,131.4,193.1,129.3,193.1L129.3,193.1z"/>
		</g>
		<g>
			<path class="st0" d="M129.3,197H59.2c-4.3,0-7.8-3.5-7.8-7.8V49.9c0-4.3,3.5-7.8,7.8-7.8H170c4.3,0,7.8,3.5,7.8,7.8v98.6
				c0,2.1-0.8,4-2.3,5.5l-40.7,40.7C133.3,196.2,131.4,197,129.3,197L129.3,197z M67,181.4h59.1l36.1-36.1V57.7H67V181.4L67,181.4z"
				/>
		</g>
		<g>
			<path class="st0" d="M121.9,79.6H82.1c-2.2,0-3.9-1.7-3.9-3.9c0-2.2,1.7-3.9,3.9-3.9h39.8c2.1,0,3.9,1.7,3.9,3.9
				C125.8,77.8,124.1,79.6,121.9,79.6L121.9,79.6z"/>
		</g>
		<g>
			<path class="st0" d="M148.2,100.1H82.1c-2.2,0-3.9-1.7-3.9-3.9c0-2.2,1.7-3.9,3.9-3.9h66.1c2.2,0,3.9,1.7,3.9,3.9
				C152.1,98.3,150.4,100.1,148.2,100.1L148.2,100.1z"/>
		</g>
		<g>
			<path class="st0" d="M148.2,120.6H82.1c-2.2,0-3.9-1.7-3.9-3.9s1.7-3.9,3.9-3.9h66.1c2.2,0,3.9,1.7,3.9,3.9
				S150.4,120.6,148.2,120.6L148.2,120.6z"/>
		</g>
		<g>
			<path class="st0" d="M109.8,141.1H82.1c-2.2,0-3.9-1.7-3.9-3.9c0-2.2,1.7-3.9,3.9-3.9h27.7c2.2,0,3.9,1.7,3.9,3.9
				C113.7,139.4,111.9,141.1,109.8,141.1L109.8,141.1z"/>
		</g>
	</g>
	<g>
		<path class="st0" d="M57.2,168.9h-27c-4.3,0-7.8-3.5-7.8-7.8V16.9c0-4.3,3.5-7.8,7.8-7.8h111.9c4.3,0,7.8,3.5,7.8,7.8v30.2
			c0,4.3-3.5,7.8-7.8,7.8c-4.3,0-7.8-3.5-7.8-7.8V24.7H38v128.6h19.2c4.3,0,7.8,3.5,7.8,7.8C65,165.4,61.5,168.9,57.2,168.9
			L57.2,168.9z"/>
	</g>
	<g>
		<path class="st0" d="M109.1,33.2H63.3c-8.5,0-15.4-6.9-15.4-15.4S54.8,2.4,63.3,2.4h45.8c8.5,0,15.4,6.9,15.4,15.4
			S117.6,33.2,109.1,33.2L109.1,33.2z"/>
	</g>
</g>
</svg>
