<?xml version="1.0" encoding="utf-8"?>
<!-- Generator: Adobe Illustrator 19.1.0, SVG Export Plug-In . SVG Version: 6.00 Build 0)  -->
<svg version="1.1" id="Layer_1" xmlns="http://www.w3.org/2000/svg" xmlns:xlink="http://www.w3.org/1999/xlink" x="0px" y="0px"
	 viewBox="0 0 200 200" style="enable-background:new 0 0 200 200;" xml:space="preserve">
<style type="text/css">
	.st0{fill:#444444;}
</style>
<g>
	<g>
		<path class="st0" d="M174.3,198H27.7c-9,0-16.3-7.3-16.3-16.3V94.9c0-9,7.3-16.3,16.3-16.3h146.6c9,0,16.3,7.3,16.3,16.3v86.9
			C190.6,190.7,183.2,198,174.3,198L174.3,198z M27.7,94.9v86.9h146.6V94.9H27.7L27.7,94.9z"/>
	</g>
	<g>
		<path class="st0" d="M153.2,92.9c-4.5,0-8.1-3.6-8.1-8.1V62.3c0-24.3-19.8-44.1-44.1-44.1c-24.3,0-44.1,19.8-44.1,44.1v22.4
			c0,4.5-3.6,8.1-8.1,8.1c-4.5,0-8.1-3.6-8.1-8.1V62.3C40.6,29,67.7,1.9,101,1.9c33.3,0,60.4,27.1,60.4,60.4v22.4
			C161.4,89.2,157.7,92.9,153.2,92.9L153.2,92.9z"/>
	</g>
	<path class="st0" d="M101,110.5c-9.4,0-17,7.6-17,17c0,6.4,3.6,11.9,8.8,14.8v19.1h16.3v-19.1c5.2-2.9,8.8-8.4,8.8-14.8
		C118,118.1,110.4,110.5,101,110.5L101,110.5z"/>
</g>
</svg>
