<?xml version="1.0" encoding="utf-8"?>
<!-- Generator: Adobe Illustrator 19.1.0, SVG Export Plug-In . SVG Version: 6.00 Build 0)  -->
<svg version="1.1" id="Layer_1" xmlns="http://www.w3.org/2000/svg" xmlns:xlink="http://www.w3.org/1999/xlink" x="0px" y="0px"
	 viewBox="0 0 200 200" style="enable-background:new 0 0 200 200;" xml:space="preserve">
<style type="text/css">
	.st0{fill:#FFFFFF;}
</style>
<g>
	<g>
		<g>
			<path class="st0" d="M99.9,108.3c-1.7,0-3.4-0.5-4.9-1.6L50.8,74.5c-3.7-2.7-4.5-7.8-1.8-11.5c2.7-3.7,7.8-4.5,11.5-1.8
				l39.4,28.7l39.4-28.7c3.7-2.7,8.8-1.9,11.5,1.8c2.7,3.7,1.9,8.8-1.8,11.5l-44.3,32.2C103.3,107.8,101.6,108.3,99.9,108.3
				L99.9,108.3z"/>
		</g>
		<g>
			<path class="st0" d="M99.9,108.3c-4.6,0-8.3-3.7-8.3-8.3V11.4c0-4.6,3.7-8.3,8.3-8.3c4.6,0,8.3,3.7,8.3,8.3v88.7
				C108.2,104.6,104.5,108.3,99.9,108.3L99.9,108.3z"/>
		</g>
	</g>
	<g>
		<path class="st0" d="M186.6,197.7H13.3c-4.6,0-8.3-3.7-8.3-8.3V131c0-4.6,3.7-8.3,8.3-8.3h53.6c4.6,0,8.3,3.7,8.3,8.3v11.7h49.5
			V131c0-4.6,3.7-8.3,8.3-8.3h53.6c4.6,0,8.3,3.7,8.3,8.3v58.4C194.8,194,191.1,197.7,186.6,197.7L186.6,197.7z M21.6,181.2h156.8
			v-41.9h-37.1v3.4c0,9.1-7.4,16.5-16.5,16.5H75.2c-9.1,0-16.5-7.4-16.5-16.5v-3.4H21.6V181.2L21.6,181.2z"/>
	</g>
	<g>
		<g>
			<g>
				<path class="st0" d="M13.3,139.3c-2.1,0-4.1-0.8-5.7-2.3c-3.3-3.2-3.4-8.4-0.2-11.7l33.3-34.4c3.2-3.3,8.4-3.3,11.7-0.2
					c3.3,3.2,3.4,8.4,0.2,11.7l-33.3,34.4C17.6,138.4,15.5,139.3,13.3,139.3L13.3,139.3z"/>
			</g>
		</g>
		<g>
			<g>
				<path class="st0" d="M186.6,139.3c-2.1,0-4.3-0.8-5.9-2.5l-33.4-34.4c-3.2-3.3-3.1-8.5,0.2-11.7c3.3-3.2,8.5-3.1,11.7,0.2
					l33.4,34.4c3.2,3.3,3.1,8.5-0.2,11.7C190.7,138.5,188.6,139.3,186.6,139.3L186.6,139.3z"/>
			</g>
		</g>
	</g>
</g>
</svg>
