<?xml version="1.0" encoding="utf-8"?>
<!-- Generator: Adobe Illustrator 19.1.0, SVG Export Plug-In . SVG Version: 6.00 Build 0)  -->
<svg version="1.1" id="Layer_1" xmlns="http://www.w3.org/2000/svg" xmlns:xlink="http://www.w3.org/1999/xlink" x="0px" y="0px"
	 viewBox="0 0 200 200" style="enable-background:new 0 0 200 200;" xml:space="preserve">
<style type="text/css">
	.st0{fill:#FFFFFF;}
</style>
<g>
	<g>
		<path class="st0" d="M176.1,167.7H23.9c-10.9,0-19.8-8.9-19.8-19.8V48.3c0-10.9,8.9-19.8,19.8-19.8h152.2
			c10.9,0,19.8,8.9,19.8,19.8v99.6C195.9,158.8,187,167.7,176.1,167.7L176.1,167.7z M23.9,45.3c-1.7,0-3,1.3-3,3v99.6
			c0,1.7,1.4,3,3,3h152.2c1.7,0,3-1.4,3-3V48.3c0-1.7-1.3-3-3-3H23.9L23.9,45.3z"/>
	</g>
	<g>
		<path class="st0" d="M176.1,163.5H23.9c-6.4,0-12.2-4-14.5-10.1c-0.6-1.6-0.2-3.5,1.1-4.6l59.4-53c1.7-1.5,4.4-1.4,5.9,0.3
			c1.5,1.7,1.4,4.4-0.3,5.9l-56.9,50.7c1.3,1.5,3.2,2.3,5.3,2.3h152.2c2,0,3.9-0.9,5.3-2.3l-57.5-51.3c-1.7-1.5-1.9-4.2-0.3-5.9
			c1.5-1.7,4.2-1.9,5.9-0.3l60.1,53.6c1.3,1.2,1.8,3,1.1,4.6C188.4,159.4,182.5,163.5,176.1,163.5L176.1,163.5z"/>
	</g>
	<g>
		<path class="st0" d="M100,125.8c-1,0-2-0.4-2.8-1.1L10.5,47.4c-1.3-1.2-1.8-3-1.1-4.6c2.3-6,8.1-10.1,14.5-10.1h152.2
			c6.4,0,12.2,4,14.5,10.1c0.6,1.6,0.2,3.5-1.1,4.6l-86.7,77.3C102,125.5,101,125.8,100,125.8L100,125.8z M18.6,43.5L100,116
			l81.4-72.6c-1.3-1.4-3.2-2.3-5.3-2.3H23.9C21.9,41.1,20,42,18.6,43.5L18.6,43.5z"/>
	</g>
</g>
</svg>
