<?xml version="1.0" encoding="utf-8"?>
<!-- Generator: Adobe Illustrator 19.1.0, SVG Export Plug-In . SVG Version: 6.00 Build 0)  -->
<svg version="1.1" id="Layer_1" xmlns="http://www.w3.org/2000/svg" xmlns:xlink="http://www.w3.org/1999/xlink" x="0px" y="0px"
	 viewBox="0 0 200 200" style="enable-background:new 0 0 200 200;" xml:space="preserve">
<style type="text/css">
	.st0{fill:#FFFFFF;}
</style>
<g>
	<g>
		<path class="st0" d="M189.4,197H10.8c-4.5,0-8.2-3.7-8.2-8.2V10.2C2.6,5.7,6.3,2,10.8,2c4.5,0,8.2,3.7,8.2,8.2v170.4h170.4
			c4.5,0,8.2,3.7,8.2,8.2C197.6,193.3,193.9,197,189.4,197L189.4,197z"/>
	</g>
	<g>
		<path class="st0" d="M70.5,167.3H40.3c-4.2,0-7.5-3.4-7.5-7.5v-42.3c0-4.2,3.4-7.5,7.5-7.5h30.2c4.2,0,7.5,3.4,7.5,7.5v42.3
			C78,164,74.6,167.3,70.5,167.3L70.5,167.3z M47.8,152.2h15.1v-27.2H47.8V152.2L47.8,152.2z"/>
	</g>
	<g>
		<path class="st0" d="M187,167.3h-30.2c-4.2,0-7.5-3.4-7.5-7.5V10.2c0-4.2,3.4-7.5,7.5-7.5H187c4.2,0,7.6,3.4,7.6,7.5v149.6
			C194.6,164,191.2,167.3,187,167.3L187,167.3z M164.4,152.2h15.1V17.8h-15.1V152.2L164.4,152.2z"/>
	</g>
	<g>
		<path class="st0" d="M128.7,167.3H98.6c-4.2,0-7.6-3.4-7.6-7.5V65c0-4.2,3.4-7.5,7.6-7.5h30.2c4.2,0,7.6,3.4,7.6,7.5v94.8
			C136.3,164,132.9,167.3,128.7,167.3L128.7,167.3z M106.1,152.2h15.1V72.6h-15.1V152.2L106.1,152.2z"/>
	</g>
</g>
</svg>
